name rise44.9368peak50.754fall52.0217.mot
datacolumns 19
datarows 32
range 16.40660800000000 16.45828000000000
endheader
time	ground_force1_vx	ground_force1_vy	ground_force1_vz	ground_force1_px	ground_force1_py	ground_force1_pz	ground_force2_vx	ground_force2_vy	ground_force2_vz	ground_force2_px	ground_force2_py	ground_force2_pz	ground_torque1_x	ground_torque1_y	ground_torque1_z	ground_torque2_x	ground_torque2_y	ground_torque2_z	
16.40660800000000	-58.45491600000000	819.65989400000001	69.08917200000000	0.10592100000000	0.00000000000000	0.15761800000000	-4.70733600000000	26.46326500000000	5.19229200000000	0.32048900000000	0.00000000000000	-0.04705400000000	0.00000000000000	31.95773700000000	0.00000000000000	0.00000000000000	3.45867800000000	0.00000000000000	
16.40827300000000	-58.77418900000000	818.16090999999994	69.10352800000000	0.10519100000000	0.00000000000000	0.15758000000000	-5.51784400000000	32.45962700000000	6.17551900000000	0.32688900000000	0.00000000000000	-0.04772200000000	0.00000000000000	31.89339500000000	0.00000000000000	0.00000000000000	4.15743200000000	0.00000000000000	
16.40995300000000	-59.09364900000000	816.51433799999995	69.09284000000000	0.10447300000000	0.00000000000000	0.15753800000000	-6.27938500000000	38.67495200000000	7.13566500000000	0.33280200000000	0.00000000000000	-0.04833100000000	0.00000000000000	31.82586100000000	0.00000000000000	0.00000000000000	4.85213900000000	0.00000000000000	
16.41160600000000	-59.41356700000000	814.71871099999998	69.05622200000001	0.10376800000000	0.00000000000000	0.15749200000000	-6.96369600000000	44.98973300000000	8.04412500000000	0.33828900000000	0.00000000000000	-0.04889000000000	0.00000000000000	31.75529600000000	0.00000000000000	0.00000000000000	5.52255700000000	0.00000000000000	
16.41328300000000	-59.73419700000000	812.77268100000003	68.99282500000000	0.10307600000000	0.00000000000000	0.15744200000000	-7.54688000000000	51.29721300000000	8.87639200000000	0.34340200000000	0.00000000000000	-0.04940600000000	0.00000000000000	31.68185600000000	0.00000000000000	0.00000000000000	6.15084800000000	0.00000000000000	
16.41493900000000	-60.05577200000000	810.67502600000000	68.90184200000000	0.10239600000000	0.00000000000000	0.15738700000000	-8.01064900000000	57.51026700000000	9.61340800000000	0.34818200000000	0.00000000000000	-0.04988600000000	0.00000000000000	31.60569500000000	0.00000000000000	0.00000000000000	6.72264500000000	0.00000000000000	
16.41660400000000	-60.37850600000000	808.42463799999996	68.78250400000000	0.10173100000000	0.00000000000000	0.15732900000000	-8.34294100000000	63.56569500000000	10.24228900000000	0.35266300000000	0.00000000000000	-0.05033500000000	0.00000000000000	31.52695900000000	0.00000000000000	0.00000000000000	7.22769500000000	0.00000000000000	
16.41827200000000	-60.70258700000000	806.02053200000000	68.63409299999999	0.10107900000000	0.00000000000000	0.15726500000000	-8.53793800000000	69.42589099999999	10.75643200000000	0.35687300000000	0.00000000000000	-0.05075800000000	0.00000000000000	31.44578700000000	0.00000000000000	0.00000000000000	7.66006500000000	0.00000000000000	
16.41994000000000	-61.02817800000000	803.46183399999995	68.45593599999999	0.10044000000000	0.00000000000000	0.15719700000000	-8.59557600000000	75.07813400000001	11.15509600000000	0.36083600000000	0.00000000000000	-0.05115900000000	0.00000000000000	31.36231000000000	0.00000000000000	0.00000000000000	8.01796500000000	0.00000000000000	
16.42160800000000	-61.35541600000000	800.74778600000002	68.24741400000001	0.09981500000000	0.00000000000000	0.15712400000000	-8.52067400000000	80.53195400000000	11.44256900000000	0.36457200000000	0.00000000000000	-0.05154000000000	0.00000000000000	31.27665200000000	0.00000000000000	0.00000000000000	8.30325400000000	0.00000000000000	
16.42327500000000	-61.68440500000000	797.87773700000002	68.00796300000000	0.09920400000000	0.00000000000000	0.15704600000000	-8.32181200000000	85.81512499999999	11.62706700000000	0.36809800000000	0.00000000000000	-0.05190500000000	0.00000000000000	31.18892600000000	0.00000000000000	0.00000000000000	8.52073000000000	0.00000000000000	
16.42494000000000	-62.01521800000000	794.85114599999997	67.73707300000000	0.09860700000000	0.00000000000000	0.15696200000000	-8.01010200000000	90.96886100000000	11.71950600000000	0.37142900000000	0.00000000000000	-0.05225600000000	0.00000000000000	31.09923500000000	0.00000000000000	0.00000000000000	8.67730100000000	0.00000000000000	
16.42662600000000	-62.34789400000000	791.66757600000005	67.43429600000000	0.09802300000000	0.00000000000000	0.15687300000000	-7.59796900000000	96.04273600000000	11.73226500000000	0.37457500000000	0.00000000000000	-0.05259400000000	0.00000000000000	31.00767000000000	0.00000000000000	0.00000000000000	8.78111400000000	0.00000000000000	
16.42827600000000	-62.68243500000000	788.32669099999998	67.09924700000001	0.09745200000000	0.00000000000000	0.15677900000000	-7.09804200000000	101.08981199999999	11.67804000000000	0.37754900000000	0.00000000000000	-0.05292200000000	0.00000000000000	30.91431100000000	0.00000000000000	0.00000000000000	8.84074100000000	0.00000000000000	
16.42994000000000	-63.01880200000000	784.82825300000002	66.73160100000000	0.09689300000000	0.00000000000000	0.15667900000000	-6.52222100000000	106.16229900000000	11.56887700000000	0.38035800000000	0.00000000000000	-0.05324000000000	0.00000000000000	30.81922500000000	0.00000000000000	0.00000000000000	8.86446500000000	0.00000000000000	
16.43160700000000	-63.35691800000000	781.17211899999995	66.33110300000000	0.09634800000000	0.00000000000000	0.15657300000000	-5.88096900000000	111.30802400000000	11.41541700000000	0.38301200000000	0.00000000000000	-0.05355200000000	0.00000000000000	30.72246400000000	0.00000000000000	0.00000000000000	8.85970200000000	0.00000000000000	
16.43327300000000	-63.69665800000000	777.35823900000003	65.89756199999999	0.09581400000000	0.00000000000000	0.15646200000000	-5.18283800000000	116.56782500000000	11.22637900000000	0.38551700000000	0.00000000000000	-0.05385600000000	0.00000000000000	30.62407000000000	0.00000000000000	0.00000000000000	8.83260500000000	0.00000000000000	
16.43494100000000	-64.03785700000000	773.38664800000004	65.43086000000000	0.09529100000000	0.00000000000000	0.15634400000000	-4.43423000000000	121.97389800000001	11.00827800000000	0.38788000000000	0.00000000000000	-0.05415500000000	0.00000000000000	30.52406800000000	0.00000000000000	0.00000000000000	8.78781800000000	0.00000000000000	
16.43661200000000	-64.38029700000000	769.25747000000001	64.93094600000001	0.09478000000000	0.00000000000000	0.15622100000000	-3.63936600000000	127.54907600000000	10.76536700000000	0.39010400000000	0.00000000000000	-0.05444900000000	0.00000000000000	30.42246800000000	0.00000000000000	0.00000000000000	8.72839700000000	0.00000000000000	
16.43827700000000	-64.72371200000001	764.97090800000001	64.39784299999999	0.09427900000000	0.00000000000000	0.15609200000000	-2.80042900000000	133.30689400000000	10.49974600000000	0.39219700000000	0.00000000000000	-0.05473900000000	0.00000000000000	30.31926700000000	0.00000000000000	0.00000000000000	8.65586700000000	0.00000000000000	
16.43994500000000	-65.06778500000000	760.52724400000000	63.83164500000000	0.09378700000000	0.00000000000000	0.15595700000000	-1.91784200000000	139.25231900000000	10.21162200000000	0.39416100000000	0.00000000000000	-0.05502500000000	0.00000000000000	30.21444400000000	0.00000000000000	0.00000000000000	8.57038500000000	0.00000000000000	
16.44160500000000	-65.41214400000000	755.92683299999999	63.23252200000000	0.09330400000000	0.00000000000000	0.15581600000000	-0.99062600000000	145.38294600000000	9.89966000000000	0.39600200000000	0.00000000000000	-0.05530800000000	0.00000000000000	30.10796600000000	0.00000000000000	0.00000000000000	8.47097400000000	0.00000000000000	
16.44327200000000	-65.75636200000000	751.17010600000003	62.60071500000000	0.09282900000000	0.00000000000000	0.15566900000000	-0.01681100000000	151.69049899999999	9.56138600000000	0.39772200000000	0.00000000000000	-0.05558900000000	0.00000000000000	29.99978100000000	0.00000000000000	0.00000000000000	8.35581200000000	0.00000000000000	
16.44494600000000	-66.09995499999999	746.25755900000001	61.93654100000000	0.09236100000000	0.00000000000000	0.15551600000000	1.00615300000000	158.16245799999999	9.19360300000000	0.39932400000000	0.00000000000000	-0.05586800000000	0.00000000000000	29.88982500000000	0.00000000000000	0.00000000000000	8.22252200000000	0.00000000000000	
16.44661100000000	-66.44238100000000	741.18975999999998	61.24039000000000	0.09189900000000	0.00000000000000	0.15535700000000	2.08100700000000	164.78367299999999	8.79278300000000	0.40081300000000	0.00000000000000	-0.05614400000000	0.00000000000000	29.77801500000000	0.00000000000000	0.00000000000000	8.06846800000000	0.00000000000000	
16.44827600000000	-66.78303699999999	735.96733700000004	60.51272700000000	0.09144200000000	0.00000000000000	0.15519100000000	3.21035000000000	171.53784899999999	8.35542000000000	0.40219100000000	0.00000000000000	-0.05641900000000	0.00000000000000	29.66425500000000	0.00000000000000	0.00000000000000	7.89100500000000	0.00000000000000	
16.44993900000000	-67.12126100000000	730.59098500000005	59.75409000000000	0.09098900000000	0.00000000000000	0.15502000000000	4.39636300000000	178.40880999999999	7.87831200000000	0.40346000000000	0.00000000000000	-0.05669200000000	0.00000000000000	29.54843500000000	0.00000000000000	0.00000000000000	7.68769900000000	0.00000000000000	
16.45161200000000	-67.45632999999999	725.06146300000000	58.96508900000000	0.09053900000000	0.00000000000000	0.15484300000000	5.64060800000000	185.38150700000000	7.35877900000000	0.40462400000000	0.00000000000000	-0.05696400000000	0.00000000000000	29.43042700000000	0.00000000000000	0.00000000000000	7.45648500000000	0.00000000000000	
16.45327200000000	-67.78745900000000	719.37959300000000	58.14640600000000	0.09009200000000	0.00000000000000	0.15466100000000	6.94390400000000	192.44272200000000	6.79480300000000	0.40568500000000	0.00000000000000	-0.05723500000000	0.00000000000000	29.31009300000000	0.00000000000000	0.00000000000000	7.19578100000000	0.00000000000000	
16.45494000000000	-68.11380400000000	713.54626099999996	57.29879500000000	0.08964500000000	0.00000000000000	0.15447200000000	8.30626800000000	199.58150100000000	6.18509900000000	0.40664500000000	0.00000000000000	-0.05750500000000	0.00000000000000	29.18727700000000	0.00000000000000	0.00000000000000	6.90454400000000	0.00000000000000	
16.45660500000000	-68.43445800000001	707.56242199999997	56.42307700000000	0.08919800000000	0.00000000000000	0.15427800000000	9.72691900000000	206.78931600000001	5.52912600000000	0.40750700000000	0.00000000000000	-0.05777300000000	0.00000000000000	29.06181500000000	0.00000000000000	0.00000000000000	6.58227900000000	0.00000000000000	
16.45828000000000	-68.74845300000000	701.42909999999995	55.52014000000000	0.08875000000000	0.00000000000000	0.15407800000000	11.20432500000000	214.06001900000001	4.82704800000000	0.40827300000000	0.00000000000000	-0.05804000000000	0.00000000000000	28.93352600000000	0.00000000000000	0.00000000000000	6.22901600000000	0.00000000000000	
